<svg id="_50" data-name="50" xmlns="http://www.w3.org/2000/svg" viewBox="0 0 512 512"><defs><style>.cls-1{fill:#f9eaa5;}.cls-2{fill:#e52e44;}.cls-3{fill:#fa4654;}.cls-4{fill:#fb626e;}.cls-5{fill:#f39e22;}</style></defs><title>50-heart-icons</title><circle class="cls-1" cx="256" cy="256" r="256"/><path class="cls-2" d="M409.05,283.21,273.89,418.36a25.28,25.28,0,0,1-35.78,0L126,306.21l-23-23A92,92,0,1,1,233,153.15l23,23,23-23A92,92,0,0,1,409.05,283.21Z"/><path class="cls-3" d="M409.05,283.21,299.56,392.7a25.29,25.29,0,0,1-35.79,0L151.61,280.54l-23-23a92,92,0,0,1-11.56-116,92,92,0,0,1,116,11.57l23,23,23-23A92,92,0,0,1,409.05,283.21Z"/><ellipse class="cls-4" cx="373.08" cy="169.49" rx="23.33" ry="38.57" transform="translate(14.73 368.23) rotate(-53.45)"/><ellipse class="cls-4" cx="409.8" cy="225.81" rx="14.74" ry="24.37" transform="translate(-28.72 62.63) rotate(-8.45)"/><path class="cls-5" d="M511.48,272.5c-.15,2.34-.33,4.68-.54,7H345.66a11.43,11.43,0,0,1-11.42-11.42v-39a3.59,3.59,0,0,0-6.13-2.53l-74.22,74.21a10.44,10.44,0,0,1-7.42,3.13,10.75,10.75,0,0,1-4.12-.83,10.43,10.43,0,0,1-6.54-9.79V237.75a3.58,3.58,0,0,0-6.12-2.54l-40.95,41a11.39,11.39,0,0,1-8.08,3.34H1.06c-.21-2.32-.39-4.66-.54-7H180.66a4.43,4.43,0,0,0,3.13-1.29l41-40.95a10.58,10.58,0,0,1,18.07,7.49v55.51a3.59,3.59,0,0,0,6.13,2.54l74.22-74.21a10.59,10.59,0,0,1,18.08,7.48v39a4.42,4.42,0,0,0,4.42,4.42Z"/><path class="cls-1" d="M418.24,272.5q-2.64,3.6-5.68,7h-66.9a11.43,11.43,0,0,1-11.42-11.42v-39a3.59,3.59,0,0,0-6.13-2.53l-74.22,74.21a10.44,10.44,0,0,1-7.42,3.13,10.75,10.75,0,0,1-4.12-.83,10.43,10.43,0,0,1-6.54-9.79V237.75a3.58,3.58,0,0,0-6.12-2.54l-40.95,41a11.39,11.39,0,0,1-8.08,3.34H99.44q-3-3.39-5.68-7h86.9a4.43,4.43,0,0,0,3.13-1.29l41-40.95a10.58,10.58,0,0,1,18.07,7.49v55.51a3.59,3.59,0,0,0,6.13,2.54l74.22-74.21a10.59,10.59,0,0,1,18.08,7.48v39a4.42,4.42,0,0,0,4.42,4.42Z"/></svg>